<mxfile host="app.diagrams.net" modified="2022-12-25T04:48:03.372Z" agent="5.0 (Windows NT 10.0; Win64; x64) AppleWebKit/537.36 (KHTML, like Gecko) Chrome/108.0.0.0 Safari/537.36" version="20.7.4" etag="NqnzG4dXkhpxLEjHOcEF" type="github">
  <diagram id="iCPAEJlE4XdvNPsYvM_N" name="페이지-1">
    <mxGraphModel dx="3889" dy="2428" grid="1" gridSize="10" guides="1" tooltips="1" connect="1" arrows="1" fold="1" page="1" pageScale="1" pageWidth="827" pageHeight="1169" math="0" shadow="0">
      <root>
        <mxCell id="0" />
        <mxCell id="1" parent="0" />
        <mxCell id="BBxYeIenQKLHBEVqydsv-35" value="" style="group" vertex="1" connectable="0" parent="1">
          <mxGeometry x="180" y="60" width="560" height="120" as="geometry" />
        </mxCell>
        <mxCell id="BBxYeIenQKLHBEVqydsv-19" value="&lt;h1&gt;우라노스&lt;/h1&gt;&lt;div&gt;하늘의 신&lt;/div&gt;" style="text;html=1;strokeColor=#000000;fillColor=none;spacing=5;spacingTop=-20;whiteSpace=wrap;overflow=hidden;rounded=0;shadow=1;" vertex="1" parent="BBxYeIenQKLHBEVqydsv-35">
          <mxGeometry x="370" width="190" height="120" as="geometry" />
        </mxCell>
        <mxCell id="BBxYeIenQKLHBEVqydsv-18" value="&lt;h1&gt;가이아&lt;/h1&gt;&lt;div&gt;대지의 신&lt;/div&gt;" style="text;html=1;strokeColor=#000000;fillColor=none;spacing=5;spacingTop=-20;whiteSpace=wrap;overflow=hidden;rounded=0;shadow=1;" vertex="1" parent="BBxYeIenQKLHBEVqydsv-35">
          <mxGeometry x="30" width="190" height="120" as="geometry" />
        </mxCell>
        <mxCell id="BBxYeIenQKLHBEVqydsv-52" value="" style="endArrow=none;html=1;rounded=0;entryX=0;entryY=0.5;entryDx=0;entryDy=0;exitX=1;exitY=0.5;exitDx=0;exitDy=0;" edge="1" parent="BBxYeIenQKLHBEVqydsv-35" source="BBxYeIenQKLHBEVqydsv-18" target="BBxYeIenQKLHBEVqydsv-19">
          <mxGeometry width="50" height="50" relative="1" as="geometry">
            <mxPoint x="350" y="510" as="sourcePoint" />
            <mxPoint x="400" y="460" as="targetPoint" />
          </mxGeometry>
        </mxCell>
        <mxCell id="BBxYeIenQKLHBEVqydsv-40" value="" style="group;strokeColor=none;" vertex="1" connectable="0" parent="1">
          <mxGeometry x="60" y="270" width="680" height="770" as="geometry" />
        </mxCell>
        <mxCell id="BBxYeIenQKLHBEVqydsv-10" value="&lt;h1&gt;이아이페토스&lt;/h1&gt;&lt;p&gt;&lt;br&gt;&lt;/p&gt;" style="text;html=1;strokeColor=#000000;fillColor=none;spacing=5;spacingTop=-20;whiteSpace=wrap;overflow=hidden;rounded=0;container=0;" vertex="1" parent="BBxYeIenQKLHBEVqydsv-40">
          <mxGeometry x="-40" y="-30" width="190" height="120" as="geometry" />
        </mxCell>
        <mxCell id="BBxYeIenQKLHBEVqydsv-11" value="&lt;h1&gt;크로노스&lt;/h1&gt;" style="text;html=1;strokeColor=#000000;fillColor=none;spacing=5;spacingTop=-20;whiteSpace=wrap;overflow=hidden;rounded=0;container=0;" vertex="1" parent="BBxYeIenQKLHBEVqydsv-40">
          <mxGeometry x="150" y="-30" width="190" height="120" as="geometry" />
        </mxCell>
        <mxCell id="BBxYeIenQKLHBEVqydsv-12" value="&lt;h1&gt;테이아&lt;/h1&gt;" style="text;html=1;strokeColor=#000000;fillColor=none;spacing=5;spacingTop=-20;whiteSpace=wrap;overflow=hidden;rounded=0;shadow=0;container=0;" vertex="1" parent="BBxYeIenQKLHBEVqydsv-40">
          <mxGeometry x="490" y="-30" width="190" height="120" as="geometry" />
        </mxCell>
        <mxCell id="BBxYeIenQKLHBEVqydsv-44" value="&lt;h1&gt;아프로디테&lt;/h1&gt;&lt;div&gt;미의 여신&lt;/div&gt;" style="text;html=1;strokeColor=default;fillColor=none;spacing=5;spacingTop=-20;whiteSpace=wrap;overflow=hidden;rounded=0;shadow=0;" vertex="1" parent="1">
          <mxGeometry x="1710" y="460" width="190" height="120" as="geometry" />
        </mxCell>
        <mxCell id="BBxYeIenQKLHBEVqydsv-45" value="" style="edgeStyle=segmentEdgeStyle;endArrow=classic;html=1;curved=0;rounded=0;endSize=8;startSize=8;entryX=0.5;entryY=0;entryDx=0;entryDy=0;exitX=1;exitY=0.5;exitDx=0;exitDy=0;" edge="1" parent="1" source="BBxYeIenQKLHBEVqydsv-19" target="BBxYeIenQKLHBEVqydsv-44">
          <mxGeometry width="50" height="50" relative="1" as="geometry">
            <mxPoint x="410" y="570" as="sourcePoint" />
            <mxPoint x="460" y="520" as="targetPoint" />
          </mxGeometry>
        </mxCell>
        <mxCell id="BBxYeIenQKLHBEVqydsv-13" value="&lt;h1&gt;레아&lt;/h1&gt;&lt;div&gt;동물의 안주인&lt;/div&gt;" style="text;html=1;strokeColor=#000000;fillColor=none;spacing=5;spacingTop=-20;whiteSpace=wrap;overflow=hidden;rounded=0;shadow=0;container=0;" vertex="1" parent="1">
          <mxGeometry x="740" y="240" width="190" height="120" as="geometry" />
        </mxCell>
        <mxCell id="BBxYeIenQKLHBEVqydsv-14" value="&lt;h1&gt;므네모쉬네&lt;/h1&gt;&lt;div&gt;기억의신&lt;/div&gt;" style="text;html=1;strokeColor=#000000;fillColor=none;spacing=5;spacingTop=-20;whiteSpace=wrap;overflow=hidden;rounded=0;shadow=0;container=0;" vertex="1" parent="1">
          <mxGeometry x="930" y="240" width="190" height="120" as="geometry" />
        </mxCell>
        <mxCell id="BBxYeIenQKLHBEVqydsv-15" value="&lt;h1&gt;포이베&lt;/h1&gt;" style="text;html=1;strokeColor=#000000;fillColor=none;spacing=5;spacingTop=-20;whiteSpace=wrap;overflow=hidden;rounded=0;shadow=0;container=0;" vertex="1" parent="1">
          <mxGeometry x="1120" y="240" width="190" height="120" as="geometry" />
        </mxCell>
        <mxCell id="BBxYeIenQKLHBEVqydsv-16" value="&lt;h1&gt;테튀스&lt;/h1&gt;" style="text;html=1;strokeColor=#000000;fillColor=none;spacing=5;spacingTop=-20;whiteSpace=wrap;overflow=hidden;rounded=0;shadow=0;container=0;" vertex="1" parent="1">
          <mxGeometry x="1310" y="240" width="190" height="120" as="geometry" />
        </mxCell>
        <mxCell id="BBxYeIenQKLHBEVqydsv-17" value="&lt;h1&gt;테미스&lt;/h1&gt;&lt;div&gt;이치의 신&lt;/div&gt;" style="text;html=1;strokeColor=#000000;fillColor=none;spacing=5;spacingTop=-20;whiteSpace=wrap;overflow=hidden;rounded=0;shadow=0;container=0;" vertex="1" parent="1">
          <mxGeometry x="1500" y="240" width="190" height="120" as="geometry" />
        </mxCell>
        <mxCell id="BBxYeIenQKLHBEVqydsv-63" style="edgeStyle=elbowEdgeStyle;rounded=0;orthogonalLoop=1;jettySize=auto;html=1;exitX=0.5;exitY=1;exitDx=0;exitDy=0;entryX=0.5;entryY=1;entryDx=0;entryDy=0;startArrow=classic;startFill=1;endArrow=classic;endFill=1;" edge="1" parent="1" source="BBxYeIenQKLHBEVqydsv-8" target="BBxYeIenQKLHBEVqydsv-12">
          <mxGeometry relative="1" as="geometry">
            <Array as="points">
              <mxPoint x="210" y="520" />
            </Array>
          </mxGeometry>
        </mxCell>
        <mxCell id="BBxYeIenQKLHBEVqydsv-8" value="&lt;h1&gt;휘페리온&lt;/h1&gt;&lt;p&gt;높은 곳을 달리는 자&lt;/p&gt;" style="text;html=1;strokeColor=#000000;fillColor=none;spacing=5;spacingTop=-20;whiteSpace=wrap;overflow=hidden;rounded=0;container=0;" vertex="1" parent="1">
          <mxGeometry x="-360" y="240" width="190" height="120" as="geometry" />
        </mxCell>
        <mxCell id="BBxYeIenQKLHBEVqydsv-9" value="&lt;h1&gt;크리오스&lt;/h1&gt;&lt;p&gt;&lt;br&gt;&lt;/p&gt;" style="text;html=1;strokeColor=#000000;fillColor=none;spacing=5;spacingTop=-20;whiteSpace=wrap;overflow=hidden;rounded=0;container=0;" vertex="1" parent="1">
          <mxGeometry x="-170" y="240" width="190" height="120" as="geometry" />
        </mxCell>
        <mxCell id="BBxYeIenQKLHBEVqydsv-61" style="edgeStyle=elbowEdgeStyle;rounded=0;orthogonalLoop=1;jettySize=auto;elbow=vertical;html=1;exitX=0.5;exitY=1;exitDx=0;exitDy=0;entryX=0.5;entryY=1;entryDx=0;entryDy=0;startArrow=classic;startFill=1;endArrow=classic;endFill=1;" edge="1" parent="1" source="BBxYeIenQKLHBEVqydsv-6" target="BBxYeIenQKLHBEVqydsv-16">
          <mxGeometry relative="1" as="geometry">
            <Array as="points">
              <mxPoint x="390" y="730" />
            </Array>
          </mxGeometry>
        </mxCell>
        <mxCell id="BBxYeIenQKLHBEVqydsv-6" value="&lt;h1&gt;오케아노스&lt;/h1&gt;&lt;p&gt;태양의 신&lt;/p&gt;" style="text;html=1;strokeColor=#000000;fillColor=none;spacing=5;spacingTop=-20;whiteSpace=wrap;overflow=hidden;rounded=0;container=0;" vertex="1" parent="1">
          <mxGeometry x="-740" y="240" width="190" height="120" as="geometry" />
        </mxCell>
        <mxCell id="BBxYeIenQKLHBEVqydsv-62" style="edgeStyle=elbowEdgeStyle;rounded=0;orthogonalLoop=1;jettySize=auto;html=1;exitX=0.5;exitY=1;exitDx=0;exitDy=0;entryX=0.5;entryY=1;entryDx=0;entryDy=0;startArrow=classic;startFill=1;endArrow=classic;endFill=1;" edge="1" parent="1" source="BBxYeIenQKLHBEVqydsv-7" target="BBxYeIenQKLHBEVqydsv-15">
          <mxGeometry relative="1" as="geometry">
            <Array as="points">
              <mxPoint x="400" y="630" />
            </Array>
          </mxGeometry>
        </mxCell>
        <mxCell id="BBxYeIenQKLHBEVqydsv-7" value="&lt;h1&gt;코이오스&lt;/h1&gt;&lt;p&gt;하늘 덮개&lt;/p&gt;" style="text;html=1;strokeColor=#000000;fillColor=none;spacing=5;spacingTop=-20;whiteSpace=wrap;overflow=hidden;rounded=0;container=0;" vertex="1" parent="1">
          <mxGeometry x="-550" y="240" width="190" height="120" as="geometry" />
        </mxCell>
        <mxCell id="BBxYeIenQKLHBEVqydsv-64" style="edgeStyle=elbowEdgeStyle;rounded=0;orthogonalLoop=1;jettySize=auto;elbow=vertical;html=1;exitX=0.5;exitY=1;exitDx=0;exitDy=0;entryX=0.5;entryY=1;entryDx=0;entryDy=0;startArrow=classic;startFill=1;endArrow=classic;endFill=1;" edge="1" parent="1" source="BBxYeIenQKLHBEVqydsv-10" target="BBxYeIenQKLHBEVqydsv-17">
          <mxGeometry relative="1" as="geometry">
            <Array as="points">
              <mxPoint x="870" y="460" />
            </Array>
          </mxGeometry>
        </mxCell>
        <mxCell id="BBxYeIenQKLHBEVqydsv-65" style="edgeStyle=elbowEdgeStyle;rounded=0;orthogonalLoop=1;jettySize=auto;elbow=vertical;html=1;exitX=0.5;exitY=1;exitDx=0;exitDy=0;entryX=0.5;entryY=1;entryDx=0;entryDy=0;startArrow=classic;startFill=1;endArrow=classic;endFill=1;" edge="1" parent="1" source="BBxYeIenQKLHBEVqydsv-11" target="BBxYeIenQKLHBEVqydsv-13">
          <mxGeometry relative="1" as="geometry">
            <Array as="points">
              <mxPoint x="580" y="410" />
            </Array>
          </mxGeometry>
        </mxCell>
        <mxCell id="BBxYeIenQKLHBEVqydsv-66" value="" style="html=1;shadow=0;dashed=0;align=center;verticalAlign=middle;shape=mxgraph.arrows2.arrow;dy=0.6;dx=40;direction=south;notch=0;strokeColor=default;" vertex="1" parent="1">
          <mxGeometry x="440" y="140" width="70" height="100" as="geometry" />
        </mxCell>
      </root>
    </mxGraphModel>
  </diagram>
</mxfile>
